<?xml version="1.0" standalone="no"?>
<!DOCTYPE svg PUBLIC "-//W3C//DTD SVG 20010904//EN"
 "http://www.w3.org/TR/2001/REC-SVG-20010904/DTD/svg10.dtd">
<svg version="1.0" xmlns="http://www.w3.org/2000/svg"
 width="452.000000pt" height="452.000000pt" viewBox="0 0 452.000000 452.000000"
 preserveAspectRatio="xMidYMid meet">

<g transform="translate(0.000000,452.000000) scale(0.100000,-0.100000)"
fill="#000000" stroke="none">
<path d="M2780 3793 c-30 -11 -60 -47 -66 -78 -8 -42 11 -84 79 -174 31 -40
64 -97 73 -125 22 -66 110 -244 139 -277 l22 -27 -24 -93 c-46 -178 -18 -366
67 -451 42 -43 86 -50 113 -20 10 10 22 45 27 78 17 93 19 95 52 29 34 -68 59
-96 173 -198 69 -63 74 -66 38 -23 -24 27 -60 74 -80 105 -43 63 -146 263
-156 301 l-7 25 -29 -35 c-33 -39 -50 -89 -58 -167 -3 -29 -10 -56 -15 -59
-16 -10 -47 27 -70 85 -31 80 -31 250 0 335 30 80 28 108 -9 151 -17 19 -59
100 -94 181 -35 80 -76 163 -92 185 -87 123 -94 134 -91 158 2 20 9 27 31 29
38 4 129 -33 184 -75 37 -28 55 -34 129 -43 104 -11 197 -53 313 -140 142
-108 262 -258 327 -410 72 -171 172 -368 195 -383 12 -9 59 -29 102 -43 52
-17 113 -49 176 -91 139 -95 137 -90 45 -98 -44 -4 -108 -16 -142 -27 -60 -18
-63 -21 -57 -45 16 -64 95 -133 232 -202 44 -21 102 -58 131 -80 38 -30 49
-36 44 -21 -13 35 -138 157 -209 202 -37 25 -76 54 -86 66 -19 20 -19 21 20
31 21 5 56 13 78 16 89 14 145 29 145 38 0 5 -28 37 -62 71 -77 76 -221 173
-307 206 l-63 25 -56 110 c-30 61 -76 160 -102 221 -26 62 -72 147 -101 190
-76 111 -206 238 -327 318 -109 73 -186 103 -287 113 -35 3 -68 13 -80 23 -35
30 -108 68 -164 84 -57 17 -76 18 -101 9z"/>
<path d="M3083 3493 c-9 -3 -6 -14 11 -36 13 -18 26 -40 30 -50 9 -26 30 -15
34 17 5 44 -38 84 -75 69z"/>
<path d="M86 2336 c-22 -8 -49 -24 -60 -36 -20 -20 -21 -30 -24 -390 l-3 -370
91 0 90 0 2 328 3 327 114 -260 c147 -335 155 -352 194 -375 41 -25 135 -27
184 -4 38 19 63 67 229 436 l79 177 3 -314 2 -315 96 0 95 0 -3 363 c-3 418
-1 405 -90 432 -92 27 -158 17 -209 -31 -17 -16 -77 -139 -159 -325 -74 -165
-137 -296 -141 -292 -4 4 -64 142 -134 306 -147 344 -151 349 -259 354 -36 2
-77 -3 -100 -11z"/>
<path d="M2252 2339 c-56 -11 -120 -47 -146 -82 -17 -23 -22 -46 -24 -126 -4
-110 7 -145 55 -179 54 -37 96 -45 269 -51 217 -8 214 -6 214 -133 0 -81 -2
-91 -25 -113 l-24 -25 -246 0 -245 0 0 -46 0 -45 278 3 277 3 60 30 c91 46
105 73 105 206 0 106 -1 109 -29 142 -43 49 -85 59 -271 64 -91 2 -175 6 -188
9 -68 14 -70 218 -3 254 12 6 113 10 255 10 l236 0 0 45 0 45 -252 -1 c-139
-1 -272 -5 -296 -10z"/>
<path d="M3005 2334 c-52 -19 -93 -59 -105 -103 -5 -20 -10 -150 -10 -290 0
-303 4 -318 93 -367 l52 -29 210 -3 210 -3 47 -45 47 -44 103 0 103 0 -68 61
-68 62 31 18 c52 32 55 49 55 349 0 260 -1 277 -21 310 -23 41 -71 76 -123 90
-59 16 -508 12 -556 -6z m484 -110 l28 -31 7 -231 c3 -127 4 -243 0 -257 -7
-30 -25 -32 -49 -5 -16 18 -31 20 -119 20 l-101 -1 48 -44 49 -45 -106 0
c-103 0 -107 1 -138 29 l-33 29 0 255 c0 333 -11 318 233 314 l154 -2 27 -31z"/>
<path d="M3800 2006 c0 -339 0 -343 23 -377 12 -19 44 -45 72 -59 49 -25 54
-25 338 -28 l287 -3 0 45 0 46 -235 0 c-246 0 -284 6 -299 45 -3 9 -6 165 -6
346 l0 329 -90 0 -90 0 0 -344z"/>
<path d="M1270 1864 l0 -216 38 -38 c58 -58 112 -70 324 -70 173 0 178 -1 178
-20 0 -12 -11 -32 -25 -45 l-24 -25 -246 0 -245 0 0 -46 0 -45 293 3 c277 3
294 4 332 25 22 11 51 33 65 48 l25 27 3 309 3 309 -91 0 -90 0 0 -225 0 -225
-158 0 c-126 0 -162 3 -180 16 -22 15 -22 19 -22 225 l0 209 -90 0 -90 0 0
-216z"/>
</g>
</svg>
